<svg width="501" height="509" viewBox="0 0 501 509" fill="none" xmlns="http://www.w3.org/2000/svg">
<path d="M318.468 228.532C327.407 201.707 365.4 136.881 436.915 89.9382C389.984 67.5843 269.302 105.586 318.468 228.532Z" fill="white" fill-opacity="0.18"/>
<path d="M321.621 258.045C344.233 241.213 412.28 209.885 497.543 212.305C471.913 167.252 351.54 129.47 321.621 258.045Z" fill="white" fill-opacity="0.18"/>
<path d="M312.784 298.423C340.327 292.428 415.239 291.99 491.896 329.396C487.153 277.781 393.118 193.671 312.784 298.423Z" fill="white" fill-opacity="0.18"/>
<path d="M284.985 324.507C311.697 333.511 376.196 371.612 422.756 443.081C445.198 396.358 407.717 275.891 284.985 324.507Z" fill="white" fill-opacity="0.18"/>
<path d="M250.929 331.755C268.921 353.454 303.767 419.769 305.813 505.042C349.462 477.089 380.894 354.904 250.929 331.755Z" fill="white" fill-opacity="0.18"/>
<path d="M206.645 321.164C214.507 348.235 220.059 422.941 187.973 501.974C239.144 493.718 316.638 394.159 206.645 321.164Z" fill="white" fill-opacity="0.18"/>
<path d="M185.488 295.891C175.326 322.185 134.444 384.959 61.0095 428.352C106.708 452.814 228.697 420.63 185.488 295.891Z" fill="white" fill-opacity="0.18"/>
<path d="M175.411 258.226C154.32 276.928 89.197 313.954 4.03898 318.827C33.4245 361.526 156.585 388.887 175.411 258.226Z" fill="white" fill-opacity="0.18"/>
<path d="M186.134 217.565C159.174 225.8 84.5515 232.382 5.08367 201.39C14.045 252.442 114.663 328.555 186.134 217.565Z" fill="white" fill-opacity="0.18"/>
<path d="M215.48 187.974C188.025 181.588 120.152 149.882 66.9186 83.2352C49.0858 131.904 98.0072 248.196 215.48 187.974Z" fill="white" fill-opacity="0.18"/>
<path d="M253.167 181.126C232.662 161.783 189.986 100.215 177.554 15.8284C137.64 48.8976 121.349 174.005 253.167 181.126Z" fill="white" fill-opacity="0.18"/>
<path d="M285.817 185.104C279.066 157.736 276.565 82.8652 311.847 5.20674C260.382 11.3691 178.893 107.685 285.817 185.104Z" fill="white" fill-opacity="0.18"/>
<circle cx="247.249" cy="257.428" r="39.5384" fill="white" fill-opacity="0.18"/>
</svg>
